<svg width="24" height="24" viewBox="0 0 24 24" fill="none" xmlns="http://www.w3.org/2000/svg">
<path opacity="0.4" d="M16.172 13L5 13C4.44771 13 4 12.5523 4 12V12C4 11.4477 4.44771 11 5 11L16.172 11L11.515 6.34302C11.1245 5.95255 11.1245 5.31948 11.515 4.92902V4.92902C11.9055 4.53855 12.5385 4.53855 12.929 4.92902L19.2929 11.2929C19.6834 11.6834 19.6834 12.3166 19.2929 12.7071L12.929 19.071C12.5385 19.4615 11.9055 19.4615 11.515 19.071V19.071C11.1245 18.6806 11.1245 18.0475 11.515 17.657L16.172 13Z" fill="#09121F"/>
</svg>
