<svg width="421" height="419" viewBox="0 0 421 419" fill="none" xmlns="http://www.w3.org/2000/svg">
<path d="M75.41 119.401H62.34C61.7024 119.401 61.0903 119.15 60.6357 118.703C60.1811 118.256 59.9205 117.648 59.91 117.011V104.061C59.91 101.681 59.35 99.4506 57.71 98.4106C57.3688 98.2154 56.985 98.107 56.5921 98.0949C56.1993 98.0828 55.8094 98.1673 55.4569 98.3411C55.1044 98.5149 54.7999 98.7726 54.5703 99.0916C54.3407 99.4106 54.1929 99.7811 54.14 100.171C53.53 104.001 51.74 111.781 46.74 116.621C45.0711 118.488 44.1026 120.878 44 123.381V146.461C44 148.721 48 150.551 52.8 150.551H72.6C73.5114 150.551 74.4138 150.371 75.2558 150.022C76.0978 149.674 76.8629 149.162 77.5073 148.518C78.1518 147.873 78.663 147.108 79.0117 146.266C79.3605 145.424 79.54 144.522 79.54 143.611V140.611C79.5897 138.419 80.1659 136.272 81.22 134.351C81.9579 132.933 82.3422 131.359 82.34 129.761V126.331C82.3374 124.493 81.6064 122.732 80.3073 121.433C79.0083 120.134 77.2471 119.403 75.41 119.401Z" fill="#CBCBCB" fill-opacity="0.5"/>
<path d="M41.41 120.24H32.96V148.83H41.41V120.24Z" fill="#CBCBCB" fill-opacity="0.5"/>
<path d="M348.07 202.881L355.38 182.811C358.1 183.802 360.591 185.337 362.7 187.321C364.809 189.304 366.493 191.696 367.65 194.351L348.07 202.881Z" fill="#F5F5F5"/>
<path d="M348.07 202.881L354.3 223.311C351.362 224.207 348.265 224.459 345.221 224.05C342.177 223.641 339.257 222.58 336.66 220.94C334.063 219.3 331.85 217.119 330.172 214.546C328.495 211.973 327.392 209.068 326.939 206.03C326.486 202.992 326.694 199.892 327.548 196.942C328.402 193.991 329.882 191.259 331.888 188.933C333.894 186.607 336.378 184.74 339.17 183.461C341.963 182.182 344.998 181.52 348.07 181.521C350.527 181.519 352.967 181.941 355.28 182.771L348.07 202.881Z" fill="#CBCBCB"/>
<path d="M348.07 202.88L367.69 194.44C368.874 197.192 369.467 200.162 369.428 203.158C369.389 206.154 368.72 209.108 367.465 211.828C366.209 214.548 364.395 216.973 362.141 218.947C359.887 220.92 357.243 222.396 354.38 223.28L348.07 202.88Z" fill="#EBEBEB"/>
<path d="M122.27 217.43C119.861 221.097 118.164 225.185 117.27 229.48L110.54 230.12V243.12L117.27 243.75C118.163 248.049 119.859 252.141 122.27 255.81L118 261.01L127.22 270.23L132.41 265.93C136.079 268.341 140.171 270.038 144.47 270.93L145.1 277.66H158.1L158.74 270.93C163.035 270.036 167.123 268.34 170.79 265.93L175.99 270.23L185.21 261.01L180.91 255.82C183.326 252.153 185.023 248.061 185.91 243.76L192.65 243.13V230.13L185.91 229.49C185.021 225.194 183.324 221.104 180.91 217.44L185.21 212.24L176 203.01L170.8 207.31C167.136 204.896 163.047 203.2 158.75 202.31L158.11 195.57H145.11L144.48 202.31C140.18 203.198 136.087 204.895 132.42 207.31L127.23 203.01L118 212.23L122.27 217.43ZM163.81 224.43C166.226 226.847 167.872 229.926 168.538 233.278C169.205 236.63 168.862 240.104 167.554 243.261C166.246 246.419 164.032 249.117 161.19 251.016C158.348 252.915 155.008 253.928 151.59 253.928C148.173 253.928 144.832 252.915 141.99 251.016C139.149 249.117 136.934 246.419 135.626 243.261C134.318 240.104 133.975 236.63 134.642 233.278C135.308 229.926 136.954 226.847 139.37 224.43C140.974 222.825 142.879 221.551 144.975 220.681C147.071 219.812 149.318 219.364 151.588 219.363C153.857 219.362 156.105 219.808 158.202 220.676C160.299 221.544 162.205 222.816 163.81 224.42V224.43Z" fill="#CBCBCB" fill-opacity="0.5"/>
<path d="M104 39.8805C100.098 45.8332 97.3571 52.4697 95.92 59.4405L85 60.4405V81.6005L95.93 82.6005C97.3519 89.5929 100.091 96.2512 104 102.22L97 110.65L112 125.65L120.43 118.65C126.389 122.543 133.028 125.277 140 126.71L141 137.63H162.16L163.16 126.71C170.131 125.273 176.767 122.532 182.72 118.63L191.15 125.63L206.15 110.63L199.15 102.2C203.044 96.245 205.782 89.6094 207.22 82.6405L218.14 81.6405V60.4705L207.22 59.4705C205.779 52.5008 203.038 45.865 199.14 39.9105L206.14 31.4805L191.14 16.4805L182.71 23.4805C176.757 19.579 170.121 16.8375 163.15 15.4005L162.15 4.48047H141L140 15.4005C133.03 16.8412 126.395 19.5824 120.44 23.4805L112.01 16.4805L97.01 31.4805L104 39.8805ZM171.41 51.2205C175.317 55.1398 177.975 60.1291 179.048 65.5582C180.122 70.9872 179.562 76.6126 177.44 81.7238C175.318 86.835 171.73 91.2028 167.127 94.2756C162.524 97.3484 157.114 98.9884 151.58 98.9884C146.046 98.9884 140.636 97.3484 136.033 94.2756C131.43 91.2028 127.842 86.835 125.72 81.7238C123.598 76.6126 123.038 70.9872 124.112 65.5582C125.185 60.1291 127.843 55.1398 131.75 51.2205C134.351 48.6096 137.443 46.538 140.846 45.1245C144.25 43.711 147.899 42.9834 151.585 42.9834C155.271 42.9834 158.92 43.711 162.324 45.1245C165.727 46.538 168.819 48.6096 171.42 51.2205H171.41Z" fill="#CBCBCB" fill-opacity="0.5"/>
<path d="M255.7 109.891C252.81 114.284 250.774 119.183 249.7 124.331L241.64 125.091V140.701L249.7 141.461C250.772 146.606 252.808 151.502 255.7 155.891L250.55 162.111L261.55 173.111L267.77 167.961C272.158 170.855 277.054 172.891 282.2 173.961L283 182.011H298.61L299.37 173.951C304.519 172.881 309.419 170.845 313.81 167.951L320.03 173.101L331.03 162.101L325.88 155.881C328.755 151.488 330.774 146.592 331.83 141.451L339.89 140.691V125.091L331.83 124.331C330.752 119.184 328.716 114.286 325.83 109.891L330.98 103.681L319.98 92.6805L313.76 97.8305C309.369 94.9359 304.469 92.9 299.32 91.8305L298.56 83.7705H283L282.24 91.8305C277.095 92.9042 272.199 94.9399 267.81 97.8305L261.59 92.6905L250.59 103.691L255.7 109.891ZM305.44 118.261C308.334 121.154 310.304 124.841 311.103 128.854C311.901 132.868 311.491 137.028 309.925 140.808C308.359 144.589 305.707 147.82 302.305 150.094C298.902 152.367 294.902 153.581 290.81 153.581C286.718 153.581 282.718 152.367 279.315 150.094C275.913 147.82 273.261 144.589 271.695 140.808C270.129 137.028 269.719 132.868 270.518 128.854C271.316 124.841 273.287 121.154 276.18 118.261C280.06 114.38 285.323 112.201 290.81 112.201C296.297 112.201 301.56 114.38 305.44 118.261Z" fill="#CBCBCB" fill-opacity="0.5"/>
<path d="M66.2301 191.4C64.7846 193.637 63.7674 196.122 63.2301 198.73L59.1401 199.11V207.01L63.2301 207.4C63.7647 210.006 64.7822 212.489 66.2301 214.72L63.6201 217.87L69.2201 223.47L72.3801 220.86C74.608 222.315 77.0921 223.333 79.7001 223.86L80.0801 227.95H88.0001L88.3901 223.86C90.9972 223.33 93.4808 222.312 95.7101 220.86L98.8601 223.47L104.46 217.87L101.85 214.72C103.302 212.491 104.32 210.008 104.85 207.4L109 207.01V199.11L104.91 198.73C104.382 196.12 103.364 193.632 101.91 191.4L104.52 188.25L98.9201 182.65L95.7701 185.26C93.5408 183.808 91.0572 182.791 88.4501 182.26L88.0601 178.17H80.1401L79.7601 182.26C77.1521 182.788 74.668 183.806 72.4401 185.26L69.2801 182.65L63.6801 188.25L66.2301 191.4ZM91.4601 195.65C92.9265 197.118 93.9249 198.987 94.3291 201.022C94.7333 203.056 94.5251 205.165 93.731 207.081C92.9368 208.998 91.5923 210.636 89.8673 211.788C88.1424 212.94 86.1146 213.556 84.0401 213.556C81.9657 213.556 79.9379 212.94 78.2129 211.788C76.488 210.636 75.1435 208.998 74.3493 207.081C73.5551 205.165 73.347 203.056 73.7512 201.022C74.1554 198.987 75.1538 197.118 76.6201 195.65C77.5943 194.676 78.751 193.902 80.0242 193.375C81.2973 192.847 82.662 192.576 84.0401 192.576C85.4183 192.576 86.7829 192.847 88.0561 193.375C89.3292 193.902 90.486 194.676 91.4601 195.65Z" fill="#C4C4C4"/>
<path d="M348.2 72.7903C346.749 75.0202 345.732 77.5036 345.2 80.1103L341.11 80.5003V88.4103L345.2 88.8003C345.732 91.4071 346.749 93.8904 348.2 96.1203L345.58 99.2803L351.18 104.88L354.34 102.26C356.57 103.711 359.053 104.729 361.66 105.26L362.05 109.35H370L370.39 105.27C372.997 104.739 375.48 103.721 377.71 102.27L380.87 104.89L386.47 99.2903L383.85 96.1303C385.301 93.9004 386.319 91.4171 386.85 88.8103L390.93 88.4203V80.5103L386.84 80.1203C386.309 77.5136 385.291 75.0303 383.84 72.8003L386.46 69.6403L380.86 64.0403L377.7 66.6603C375.47 65.2095 372.987 64.1917 370.38 63.6603L369.99 59.5703H362.08L361.69 63.6603C359.083 64.1917 356.6 65.2095 354.37 66.6603L351.18 64.0103L345.58 69.6103L348.2 72.7903ZM373.43 77.0103C374.898 78.4788 375.898 80.3497 376.303 82.3865C376.708 84.4233 376.5 86.5344 375.706 88.453C374.911 90.3715 373.565 92.0114 371.839 93.1651C370.112 94.3188 368.082 94.9346 366.005 94.9346C363.928 94.9346 361.898 94.3188 360.172 93.1651C358.445 92.0114 357.099 90.3715 356.305 88.453C355.51 86.5344 355.302 84.4233 355.707 82.3865C356.112 80.3497 357.112 78.4788 358.58 77.0103C360.552 75.0458 363.222 73.9428 366.005 73.9428C368.788 73.9428 371.458 75.0458 373.43 77.0103Z" fill="#C4C4C4"/>
<path d="M358.68 143.15C357.782 144.52 357.151 146.046 356.82 147.65L354.31 147.88V152.74L356.82 152.98C357.151 154.581 357.782 156.105 358.68 157.47L357.07 159.41L360.51 162.84L362.44 161.24C363.812 162.134 365.338 162.765 366.94 163.1L367.17 165.6H372L372.24 163.1C373.839 162.765 375.362 162.134 376.73 161.24L378.67 162.84L382.1 159.41L380.5 157.47C381.394 156.102 382.025 154.58 382.36 152.98L384.86 152.74V147.88L382.35 147.65C382.015 146.048 381.384 144.522 380.49 143.15L382.09 141.22L378.66 137.78L376.72 139.39C375.354 138.492 373.831 137.861 372.23 137.53L372 135.01H367.14L366.91 137.52C365.309 137.849 363.785 138.481 362.42 139.38L360.48 137.77L357.04 141.21L358.68 143.15ZM374.16 145.76C375.06 146.661 375.673 147.809 375.922 149.058C376.17 150.307 376.042 151.602 375.555 152.778C375.067 153.955 374.242 154.96 373.183 155.668C372.124 156.375 370.879 156.753 369.605 156.753C368.332 156.753 367.087 156.375 366.028 155.668C364.969 154.96 364.143 153.955 363.656 152.778C363.168 151.602 363.04 150.307 363.289 149.058C363.537 147.809 364.15 146.661 365.05 145.76C366.259 144.554 367.897 143.877 369.605 143.877C371.313 143.877 372.951 144.554 374.16 145.76Z" fill="#CBCBCB" fill-opacity="0.5"/>
<path d="M53.8499 265.82H38.4199V306.4H53.8499V265.82Z" fill="#C4C4C4"/>
<path d="M73.0799 278.721H57.6499V306.401H73.0799V278.721Z" fill="#C4C4C4"/>
<path d="M91.7601 292.561H76.3301V306.401H91.7601V292.561Z" fill="#C4C4C4"/>
<path d="M47.6 359.73H31.54V359.98H47.6V359.73Z" fill="#E0E0E0"/>
<path d="M203.75 357.021H150.22V357.271H203.75V357.021Z" fill="#E0E0E0"/>
<path d="M84.8501 369.021H48.6001V369.271H84.8501V369.021Z" fill="#E0E0E0"/>
<path d="M416.65 356.891H410.32V357.141H416.65V356.891Z" fill="#E0E0E0"/>
<path d="M420.43 413.341C420.43 415.971 328.9 418.111 216 418.111C103.1 418.111 11.5698 416.011 11.5698 413.341C11.5698 410.671 103.1 408.561 216 408.561C328.9 408.561 420.43 410.701 420.43 413.341Z" fill="#F5F5F5"/>
<path d="M342.66 382.14C341.622 380.654 340.348 379.347 338.89 378.27C338.294 377.782 337.585 377.453 336.828 377.313C336.071 377.173 335.29 377.227 334.56 377.47C332.74 378.21 331.91 380.47 332.16 382.39C332.488 384.53 333.269 386.576 334.45 388.39C339.17 395.31 343.54 401.64 350.83 406.78C350.83 398.22 347 389.47 342.66 382.14Z" fill="#407BFF"/>
<path d="M366.71 383.34C365.08 382.44 362.04 383.71 360.55 384.82C357.813 386.877 355.577 389.527 354.01 392.57C351.72 396.66 351.46 402.39 351.17 406.04C356.94 401.35 362.82 396.55 366.78 390.25C367.534 389.189 368.031 387.967 368.23 386.68C368.317 386.037 368.221 385.382 367.952 384.791C367.683 384.2 367.252 383.697 366.71 383.34Z" fill="#407BFF"/>
<path d="M351.69 410.37C351.633 410.369 351.578 410.349 351.535 410.313C351.491 410.276 351.461 410.226 351.45 410.17C350.09 403.857 347.65 397.825 344.24 392.34C344.206 392.283 344.195 392.215 344.21 392.149C344.225 392.084 344.264 392.027 344.32 391.99C344.378 391.957 344.448 391.948 344.513 391.965C344.578 391.982 344.634 392.023 344.67 392.08C348.108 397.619 350.567 403.708 351.94 410.08C351.952 410.145 351.939 410.212 351.904 410.268C351.869 410.324 351.814 410.364 351.75 410.38L351.69 410.37Z" fill="#263238"/>
<path d="M350.93 406.841H350.85C350.787 406.818 350.737 406.772 350.708 406.712C350.68 406.652 350.677 406.583 350.7 406.521C352.24 402.272 354.507 398.323 357.4 394.851C357.421 394.825 357.447 394.804 357.476 394.788C357.505 394.772 357.537 394.763 357.57 394.76C357.603 394.756 357.636 394.76 357.668 394.769C357.7 394.779 357.729 394.795 357.755 394.816C357.78 394.837 357.802 394.862 357.817 394.892C357.833 394.921 357.842 394.953 357.846 394.986C357.849 395.019 357.846 395.052 357.836 395.084C357.826 395.115 357.811 395.145 357.79 395.171C354.93 398.596 352.69 402.495 351.17 406.691C351.15 406.737 351.116 406.776 351.073 406.803C351.03 406.83 350.98 406.843 350.93 406.841Z" fill="#263238"/>
<path d="M391.27 253.251L369.05 251.561L377.57 261.571L345.15 287.281L290.85 287.161L207.1 332.771H56.9599L0.649902 410.821H44.2799L75.2099 368.441H207.1L290.76 324.141L358 324.291L401.57 289.721L409.78 299.351L411.63 277.141L413.49 254.931L391.27 253.251Z" fill="#407BFF"/>
<path opacity="0.1" d="M375.9 263.011C375.9 263.011 396.48 292.651 398.11 292.231C399.463 291.707 400.707 290.938 401.78 289.961L377.37 261.331L375.9 263.011Z" fill="black"/>
<path d="M294.85 44.3744C303.475 37.1167 304.583 24.2415 297.326 15.6166C290.068 6.99182 277.193 5.88347 268.568 13.1411C259.943 20.3987 258.835 33.274 266.092 41.8989C273.35 50.5237 286.225 51.632 294.85 44.3744Z" fill="#407BFF"/>
<path d="M271.46 41.0205L266.22 41.4405L265.31 48.0005L271.64 46.4405L271.46 41.0205Z" fill="#407BFF"/>
<path d="M274.1 23.7508C273.48 24.7017 273.043 25.7597 272.81 26.8708L271.07 27.0408V30.4208L272.81 30.5808C273.043 31.695 273.48 32.7564 274.1 33.7108L273 35.0108L275.39 37.4008L276.73 36.2908C277.685 36.9109 278.746 37.3484 279.86 37.5808L280.02 39.3208H283.4L283.57 37.5808C284.681 37.3483 285.739 36.9108 286.69 36.2908L288 37.4408L290.42 35.0108L289.3 33.7108C289.928 32.7607 290.366 31.6977 290.59 30.5808L292.34 30.4208V27.0108L290.59 26.8408C290.366 25.727 289.928 24.6673 289.3 23.7208L290.42 22.3708L288 20.0108L286.65 21.1208C285.699 20.5008 284.641 20.0633 283.53 19.8308L283.36 18.0908H280L279.84 19.8308C278.726 20.0633 277.664 20.5007 276.71 21.1208L275.38 20.0108L273 22.4008L274.1 23.7508ZM284.94 25.4908C285.578 26.1303 286.012 26.9447 286.188 27.8309C286.364 28.7171 286.272 29.6355 285.926 30.4699C285.58 31.3044 284.994 32.0176 284.243 32.5193C283.492 33.021 282.608 33.2888 281.705 33.2888C280.802 33.2888 279.918 33.021 279.167 32.5193C278.416 32.0176 277.83 31.3044 277.484 30.4699C277.138 29.6355 277.047 28.7171 277.222 27.8309C277.398 26.9447 277.832 26.1303 278.47 25.4908C278.895 25.0654 279.399 24.7279 279.954 24.4976C280.509 24.2673 281.104 24.1488 281.705 24.1488C282.306 24.1488 282.901 24.2673 283.456 24.4976C284.011 24.7279 284.516 25.0654 284.94 25.4908Z" fill="white"/>
<path d="M146.14 150.451C146.14 150.451 151.5 142.451 158.23 144.111C164.96 145.771 165.36 156.751 165.36 156.751L161.63 155.461C161.63 155.461 162.85 147.51 158.06 146.38C153.27 145.25 148.79 151.651 148.79 151.651L146.64 150.511" fill="#263238"/>
<path d="M111.12 188.58L113.16 183.28L127.94 144.96L184.88 162.15L173.05 208.18L111.12 188.58Z" fill="#407BFF"/>
<path d="M159.15 132.91C158.28 133.2 153.4 139.06 152.42 140.73C151.44 142.4 151.33 143.49 152.08 144.06C152.627 144.541 153.248 144.93 153.92 145.21C154.15 145.21 153.11 146.94 154.43 147.8C155.75 148.66 156.43 148.49 156.43 148.49C156.43 148.49 156.09 151.02 157.81 151.71C159.53 152.4 160.28 151.59 160.57 151.71C160.86 151.83 162.41 148.89 162.41 148.89L164.41 151.99C165.138 151.196 165.757 150.308 166.25 149.35C167.17 147.62 167.11 142.74 167.11 142.74L166.19 138.37L167.75 132.1C167.75 132.1 160.16 131.1 160.1 131.25C160.04 131.4 159.15 132.91 159.15 132.91Z" fill="#E9B376"/>
<path opacity="0.2" d="M127.94 144.95C127.94 144.95 131.39 169.48 148 171.25C164.61 173.02 184.88 162.15 184.88 162.15" fill="black"/>
<path opacity="0.2" d="M174.85 201.18L113.5 182.41L111.12 188.58L173.05 208.18L174.85 201.18Z" fill="black"/>
<path d="M309.06 139.09C309.06 139.09 309.27 139.77 308.46 141.09C307.65 142.41 305.89 141.49 305.9 141.72C305.643 142.399 305.282 143.033 304.83 143.6C304.29 144.37 303.19 144.3 301.48 143.4C299.77 142.5 293.71 137.86 293.39 137.01C293.39 137.01 291.86 136.16 291.68 136.11C291.5 136.06 292.22 128.44 292.22 128.44L298.54 129.72L302.87 128.62C302.87 128.62 307.75 128.35 309.51 129.2C309.82 129.34 310.1 129.49 310.36 129.64C310.579 129.765 310.763 129.943 310.894 130.158C311.025 130.373 311.1 130.618 311.111 130.87C311.122 131.122 311.069 131.372 310.957 131.598C310.845 131.824 310.677 132.017 310.47 132.16L309.21 133.06C309.21 133.06 310.45 133.73 311.32 134.25C311.601 134.412 311.828 134.653 311.974 134.943C312.12 135.232 312.177 135.558 312.14 135.88C312.131 136.014 312.101 136.146 312.05 136.27C311.963 136.487 311.797 136.663 311.586 136.763C311.374 136.863 311.133 136.88 310.91 136.81C310.951 137.25 310.838 137.69 310.589 138.055C310.341 138.42 309.974 138.687 309.55 138.81C309 139.01 309.06 139.09 309.06 139.09Z" fill="#E9B376"/>
<path opacity="0.1" d="M305.82 135.671C305.539 135.671 305.262 135.606 305.01 135.481C304.849 135.394 304.706 135.276 304.591 135.133C304.476 134.991 304.391 134.827 304.34 134.651C304.12 133.958 304.092 133.218 304.26 132.511C303.832 132.966 303.348 133.366 302.82 133.701C302.414 133.99 301.95 134.187 301.46 134.281C301.2 134.33 300.932 134.324 300.673 134.263C300.415 134.203 300.172 134.09 299.96 133.931C299.931 133.911 299.907 133.886 299.888 133.857C299.869 133.828 299.857 133.795 299.852 133.761C299.846 133.727 299.848 133.692 299.857 133.659C299.866 133.625 299.881 133.594 299.903 133.567C299.924 133.54 299.951 133.517 299.982 133.501C300.013 133.485 300.046 133.475 300.081 133.473C300.115 133.471 300.15 133.475 300.183 133.487C300.215 133.499 300.245 133.517 300.27 133.541C300.428 133.657 300.608 133.739 300.799 133.78C300.991 133.821 301.189 133.822 301.38 133.781C301.803 133.704 302.203 133.533 302.55 133.281C303.335 132.789 304.015 132.147 304.55 131.391C304.571 131.267 304.622 131.15 304.698 131.05C304.775 130.951 304.875 130.872 304.99 130.821C305.039 130.808 305.091 130.809 305.139 130.825C305.187 130.841 305.229 130.871 305.26 130.911C305.287 130.952 305.301 131.001 305.301 131.051C305.301 131.1 305.287 131.149 305.26 131.191C305.17 131.331 305.09 131.471 304.99 131.601C304.646 132.522 304.587 133.525 304.82 134.481C304.883 134.709 305.029 134.905 305.23 135.031C305.406 135.124 305.601 135.173 305.8 135.173C305.999 135.173 306.195 135.124 306.37 135.031C306.93 134.651 307.48 134.201 308.13 133.691L309.53 132.581C309.583 132.539 309.65 132.521 309.717 132.53C309.784 132.538 309.844 132.573 309.885 132.626C309.926 132.679 309.945 132.746 309.936 132.812C309.928 132.879 309.893 132.939 309.84 132.981C309.32 133.371 308.84 133.741 308.44 134.081C307.79 134.601 307.22 135.081 306.64 135.441C306.397 135.601 306.111 135.681 305.82 135.671Z" fill="#263238"/>
<path opacity="0.1" d="M302.22 143.071C301.931 143.042 301.664 142.907 301.47 142.691C301.051 142.279 300.679 141.823 300.36 141.331C300.184 141.12 300.06 140.871 299.999 140.603C299.938 140.335 299.942 140.057 300.01 139.791C300.096 139.583 300.233 139.4 300.407 139.259C300.582 139.117 300.789 139.022 301.01 138.981C301.406 138.911 301.812 138.928 302.2 139.031C302.6 139.11 302.995 139.217 303.38 139.351C303.269 139.198 303.168 139.038 303.08 138.871C302.904 138.613 302.816 138.304 302.831 137.992C302.845 137.68 302.961 137.381 303.16 137.141C303.38 136.993 303.634 136.904 303.898 136.881C304.162 136.859 304.428 136.903 304.67 137.011C306.15 137.44 307.578 138.03 308.93 138.771C308.987 138.804 309.028 138.858 309.047 138.921C309.066 138.984 309.059 139.052 309.03 139.111C309.014 139.14 308.993 139.165 308.967 139.186C308.942 139.206 308.912 139.222 308.881 139.231C308.849 139.24 308.816 139.243 308.783 139.24C308.751 139.236 308.719 139.226 308.69 139.211C307.369 138.49 305.974 137.913 304.53 137.491C304.2 137.391 303.74 137.291 303.53 137.491C303.32 137.691 303.36 138.221 303.53 138.611C303.804 139.121 304.195 139.559 304.67 139.891L305.19 140.191C305.243 140.227 305.281 140.282 305.296 140.345C305.31 140.408 305.301 140.474 305.27 140.531C305.24 140.586 305.19 140.627 305.13 140.646C305.071 140.664 305.006 140.659 304.95 140.631C304.761 140.543 304.581 140.439 304.41 140.321C303.69 139.929 302.914 139.65 302.11 139.491C301.781 139.418 301.439 139.418 301.11 139.491C300.97 139.513 300.837 139.569 300.724 139.655C300.611 139.74 300.52 139.852 300.46 139.981C300.423 140.175 300.431 140.375 300.483 140.565C300.535 140.756 300.63 140.932 300.76 141.081C301.049 141.537 301.384 141.963 301.76 142.351C301.95 142.531 302.09 142.611 302.19 142.591C302.222 142.583 302.256 142.583 302.288 142.589C302.321 142.595 302.352 142.608 302.379 142.627C302.406 142.646 302.429 142.67 302.446 142.698C302.464 142.726 302.475 142.758 302.48 142.791C302.492 142.855 302.477 142.922 302.44 142.977C302.402 143.031 302.345 143.068 302.28 143.081L302.22 143.071Z" fill="#263238"/>
<path opacity="0.1" d="M304.15 137.4C304.112 137.4 304.075 137.392 304.041 137.377C304.006 137.361 303.975 137.338 303.95 137.31C303.697 136.98 303.545 136.585 303.51 136.17C303.483 135.869 303.545 135.566 303.69 135.3C303.772 135.155 303.887 135.031 304.026 134.939C304.165 134.846 304.324 134.789 304.49 134.77C304.556 134.767 304.62 134.789 304.67 134.832C304.721 134.875 304.753 134.935 304.76 135C304.763 135.066 304.741 135.13 304.698 135.181C304.656 135.231 304.596 135.263 304.53 135.27C304.444 135.28 304.362 135.31 304.29 135.359C304.219 135.408 304.16 135.474 304.12 135.55C304.028 135.733 303.99 135.937 304.01 136.14C304.033 136.455 304.151 136.755 304.35 137C304.394 137.048 304.418 137.111 304.418 137.175C304.418 137.24 304.394 137.302 304.35 137.35C304.292 137.39 304.221 137.408 304.15 137.4Z" fill="#263238"/>
<path opacity="0.1" d="M310.84 137.011C310.797 137.021 310.753 137.021 310.71 137.011C309.553 136.252 308.319 135.615 307.03 135.111C306.97 135.086 306.921 135.039 306.895 134.979C306.869 134.919 306.867 134.852 306.89 134.791C306.901 134.76 306.918 134.732 306.941 134.708C306.963 134.684 306.99 134.665 307.02 134.651C307.05 134.638 307.082 134.632 307.115 134.631C307.148 134.631 307.18 134.638 307.21 134.651C308.53 135.16 309.79 135.811 310.97 136.591C310.998 136.607 311.023 136.629 311.043 136.655C311.062 136.681 311.076 136.711 311.084 136.743C311.091 136.775 311.092 136.808 311.086 136.84C311.08 136.873 311.068 136.903 311.05 136.931C311.024 136.959 310.991 136.982 310.955 136.995C310.918 137.009 310.879 137.015 310.84 137.011Z" fill="#263238"/>
<path d="M157.12 267.791L147.65 288.441L156.31 293.181L169.19 272.321L157.12 267.791Z" fill="#E9B376"/>
<path d="M149.57 287.42C150.14 289.11 152.73 290.31 154.33 290.04L155.25 288.43C156.2 287.16 157.04 286.78 158.42 287.77C159.1 288.25 159.53 289.62 159.42 291.26C159.252 292.808 159.437 294.374 159.96 295.84C159.96 295.84 164.78 302.69 166.76 304.7C167.94 305.89 169.47 307.57 169.67 309.63C169.727 310.297 169.704 310.969 169.6 311.63C169.442 312.238 169.207 312.822 168.9 313.37L152.18 304.31C151.68 303.442 151.034 302.668 150.27 302.02C149.873 301.837 149.436 301.755 149 301.783C148.563 301.811 148.141 301.948 147.77 302.18L141.67 298.93L142.67 296.47C142.93 295.82 143.22 295.07 143.53 294.28C144.86 290.89 147.31 287.28 147.69 286.36C148.33 284.65 149.57 287.42 149.57 287.42Z" fill="#263238"/>
<path d="M162.64 299.38C162.62 299.326 162.583 299.28 162.534 299.249C162.485 299.218 162.428 299.205 162.37 299.21C161.826 299.242 161.3 299.422 160.85 299.73C160.61 299.9 160.85 300.31 161.1 300.14C161.497 299.869 161.96 299.71 162.44 299.68C162.476 299.679 162.51 299.67 162.541 299.653C162.572 299.636 162.599 299.612 162.618 299.582C162.638 299.553 162.65 299.519 162.654 299.484C162.658 299.449 162.653 299.413 162.64 299.38Z" fill="#407BFF"/>
<path d="M161.73 298.01C161.711 297.956 161.673 297.91 161.624 297.879C161.575 297.848 161.518 297.834 161.46 297.84C160.915 297.878 160.391 298.061 159.94 298.37C159.7 298.53 159.94 298.95 160.19 298.78C160.588 298.51 161.05 298.348 161.53 298.31C161.564 298.309 161.598 298.3 161.628 298.283C161.658 298.267 161.683 298.243 161.703 298.215C161.722 298.187 161.735 298.155 161.74 298.121C161.744 298.087 161.741 298.053 161.73 298.02V298.01Z" fill="#407BFF"/>
<path d="M160.75 296.611C160.727 296.559 160.689 296.515 160.641 296.485C160.593 296.455 160.537 296.439 160.48 296.44C159.945 296.497 159.435 296.694 159 297.01C158.76 297.17 159 297.591 159.25 297.421C159.647 297.149 160.11 296.99 160.59 296.961C160.625 296.958 160.658 296.947 160.688 296.929C160.718 296.912 160.743 296.888 160.763 296.859C160.782 296.83 160.794 296.797 160.799 296.763C160.804 296.728 160.801 296.693 160.79 296.66L160.75 296.611Z" fill="#407BFF"/>
<path opacity="0.2" d="M169.66 310.7C169.66 311 169.66 311.32 169.58 311.65C169.415 312.257 169.177 312.841 168.87 313.39L152.15 304.33C151.65 303.463 151.004 302.688 150.24 302.04C149.843 301.857 149.406 301.776 148.97 301.804C148.533 301.832 148.111 301.968 147.74 302.2L141.64 298.95L142.64 296.49L142.78 296.13L169.66 310.7Z" fill="white"/>
<path d="M160.07 297.061L160.26 296.621C160.513 295.996 160.817 295.394 161.17 294.821C161.547 294.215 162.078 293.722 162.71 293.391C162.877 293.287 163.068 293.229 163.264 293.22C163.46 293.211 163.655 293.253 163.83 293.341C163.999 293.468 164.127 293.642 164.2 293.84C164.273 294.039 164.287 294.254 164.24 294.461C164.181 294.801 164.054 295.126 163.867 295.416C163.679 295.707 163.436 295.956 163.15 296.151C162.322 296.552 161.439 296.828 160.53 296.971L160.07 297.061ZM163.37 293.721C163.216 293.726 163.066 293.767 162.93 293.841C162.381 294.131 161.918 294.563 161.59 295.091C161.332 295.503 161.105 295.934 160.91 296.381C161.606 296.272 162.281 296.056 162.91 295.741C163.14 295.586 163.337 295.386 163.49 295.155C163.643 294.923 163.748 294.663 163.8 294.391C163.8 294.171 163.8 293.881 163.62 293.771C163.546 293.723 163.457 293.705 163.37 293.721Z" fill="#407BFF"/>
<path d="M160.62 297.181L160.26 296.881C159.529 296.317 158.891 295.642 158.37 294.881C158.211 294.575 158.116 294.24 158.09 293.896C158.064 293.552 158.109 293.207 158.22 292.881C158.282 292.679 158.399 292.499 158.558 292.361C158.717 292.223 158.912 292.133 159.12 292.101C159.322 292.105 159.52 292.161 159.694 292.262C159.869 292.364 160.016 292.508 160.12 292.681C160.511 293.277 160.736 293.968 160.77 294.681C160.809 295.348 160.788 296.017 160.71 296.681L160.62 297.181ZM159.16 292.611C158.95 292.611 158.78 292.861 158.71 293.071C158.619 293.333 158.583 293.612 158.605 293.889C158.628 294.167 158.708 294.436 158.84 294.681C159.221 295.251 159.69 295.758 160.23 296.181C160.27 295.695 160.27 295.206 160.23 294.721C160.197 294.1 160 293.5 159.66 292.981C159.57 292.841 159.38 292.611 159.16 292.611Z" fill="#407BFF"/>
<path d="M249.06 219.18L239.6 239.84L248.25 244.58L261.13 223.72L249.06 219.18Z" fill="#E9B376"/>
<path d="M241.51 238.82C242.09 240.51 244.67 241.71 246.27 241.44L247.19 239.831C248.14 238.561 248.99 238.18 250.36 239.17C251.04 239.65 251.47 241.02 251.36 242.66C251.191 244.205 251.376 245.768 251.9 247.23C251.9 247.23 256.73 254.09 258.7 256.1C259.88 257.29 261.41 258.97 261.61 261.03C261.665 261.697 261.645 262.368 261.55 263.03C261.381 263.636 261.143 264.22 260.84 264.771L244.12 255.711C243.62 254.843 242.974 254.068 242.21 253.42C241.813 253.237 241.376 253.156 240.94 253.184C240.503 253.212 240.081 253.348 239.71 253.581L233.61 250.331L234.61 247.87C234.87 247.22 235.16 246.471 235.47 245.681C236.8 242.281 239.25 238.68 239.64 237.76C240.27 236.01 241.51 238.82 241.51 238.82Z" fill="#263238"/>
<path d="M254.58 250.771C254.558 250.72 254.522 250.677 254.476 250.646C254.43 250.616 254.375 250.6 254.32 250.601C253.775 250.635 253.249 250.819 252.8 251.131C252.55 251.301 252.8 251.711 253.04 251.541C253.439 251.272 253.901 251.113 254.38 251.081C254.416 251.079 254.45 251.07 254.481 251.053C254.512 251.036 254.539 251.012 254.559 250.983C254.58 250.954 254.593 250.92 254.598 250.885C254.604 250.85 254.601 250.814 254.59 250.781L254.58 250.771Z" fill="#407BFF"/>
<path d="M253.67 249.38C253.65 249.326 253.613 249.28 253.564 249.249C253.515 249.218 253.458 249.205 253.4 249.21C252.857 249.251 252.334 249.43 251.88 249.73C251.64 249.9 251.88 250.32 252.13 250.15C252.526 249.876 252.989 249.714 253.47 249.68C253.504 249.679 253.538 249.67 253.568 249.653C253.598 249.637 253.623 249.613 253.643 249.585C253.662 249.557 253.675 249.525 253.68 249.491C253.684 249.457 253.681 249.423 253.67 249.39V249.38Z" fill="#407BFF"/>
<path d="M252.69 248.011C252.668 247.958 252.63 247.914 252.582 247.883C252.534 247.853 252.477 247.838 252.42 247.841C251.876 247.88 251.351 248.063 250.9 248.371C250.66 248.531 250.9 248.951 251.15 248.781C251.547 248.509 252.01 248.35 252.49 248.321C252.525 248.318 252.558 248.307 252.588 248.29C252.618 248.272 252.643 248.248 252.663 248.219C252.682 248.19 252.694 248.157 252.699 248.123C252.704 248.089 252.701 248.054 252.69 248.021V248.011Z" fill="#407BFF"/>
<path opacity="0.2" d="M261.6 262.101C261.594 262.435 261.567 262.769 261.52 263.101C261.363 263.71 261.124 264.295 260.81 264.841L244.09 255.781C243.591 254.915 242.949 254.141 242.19 253.491C241.793 253.306 241.356 253.224 240.92 253.252C240.483 253.28 240.06 253.417 239.69 253.651L233.58 250.401L234.58 247.941L234.73 247.581L261.6 262.101Z" fill="white"/>
<path d="M252 248.461L252.19 248.021C252.444 247.392 252.752 246.787 253.11 246.211C253.483 245.608 254.012 245.118 254.64 244.791C254.811 244.695 255.004 244.645 255.2 244.645C255.396 244.645 255.589 244.695 255.76 244.791C255.93 244.917 256.059 245.091 256.132 245.29C256.205 245.488 256.218 245.704 256.17 245.911C256.111 246.251 255.984 246.576 255.796 246.866C255.609 247.156 255.366 247.406 255.08 247.601C254.258 248.007 253.377 248.284 252.47 248.421L252 248.461ZM255.3 245.111C255.145 245.119 254.995 245.164 254.86 245.241C254.308 245.528 253.845 245.96 253.52 246.491C253.262 246.903 253.035 247.334 252.84 247.781C253.518 247.663 254.174 247.447 254.79 247.141C255.021 246.986 255.218 246.787 255.371 246.555C255.524 246.323 255.629 246.063 255.68 245.791C255.68 245.571 255.68 245.281 255.5 245.171C255.444 245.133 255.378 245.112 255.31 245.111H255.3Z" fill="#407BFF"/>
<path d="M252.56 248.581L252.2 248.281C251.468 247.718 250.83 247.043 250.31 246.281C250.153 245.974 250.059 245.639 250.034 245.296C250.008 244.952 250.051 244.607 250.16 244.281C250.211 244.084 250.321 243.908 250.475 243.775C250.629 243.642 250.819 243.56 251.021 243.538C251.223 243.516 251.427 243.557 251.605 243.653C251.784 243.75 251.928 243.899 252.02 244.081C252.413 244.677 252.64 245.367 252.68 246.081C252.71 246.748 252.687 247.417 252.61 248.081L252.56 248.581ZM251.1 244.011C250.88 244.011 250.72 244.261 250.64 244.471C250.553 244.734 250.52 245.012 250.542 245.289C250.565 245.565 250.642 245.834 250.77 246.081C251.153 246.649 251.622 247.155 252.16 247.581C252.2 247.095 252.2 246.606 252.16 246.121C252.127 245.5 251.93 244.9 251.59 244.381C251.53 244.271 251.33 244.011 251.1 244.011Z" fill="#407BFF"/>
<path d="M194.87 153.26C194.87 153.26 192.56 164.07 195.94 173.54L182.65 221.54C182.65 221.54 147.76 282.14 148.81 282.4C149.86 282.66 166.81 292.78 166.81 292.78C166.81 292.78 200.67 240.25 205.58 233.26C210.49 226.27 230.69 172.75 230.69 172.75L194.87 153.26Z" fill="#263238"/>
<path opacity="0.3" d="M208 157.68C207.35 159.62 202.63 164.94 201.91 167.16C201.7 167.81 196.54 164.98 196.32 165.66C200.48 171.48 216.12 179.32 226.67 184.17C228.33 180.08 228.77 178.29 230.11 174.78C232.19 169.52 234.46 165.39 235.64 162.36C226.22 160.34 215.81 158.75 208 157.68Z" fill="black"/>
<path d="M290.29 167.47C277.2 160.78 241.36 151.55 241.36 151.55L242.86 140.88L200.74 132.57C198.694 137.354 197.023 142.288 195.74 147.33C189.87 172.7 215.74 175.77 220.87 176.1L267.67 184.44L242.95 229.64L260.27 236.31C260.27 236.31 282.67 202.54 293.4 184.44C297.55 177.37 293.85 169.29 290.29 167.47Z" fill="#263238"/>
<path opacity="0.3" d="M233.39 143.131L215.39 139.651L216.09 136.791L234.03 140.271L233.39 143.131Z" fill="white"/>
<path opacity="0.3" d="M235.39 140.541L242.7 142.011L242.29 144.931L234.81 143.401L235.39 140.541Z" fill="white"/>
<path opacity="0.3" d="M202.34 134.121L214.72 136.521L213.99 139.371L201.66 136.981L202.34 134.121Z" fill="white"/>
<g opacity="0.3">
<path d="M200.39 136.69L199.21 136.39L200.28 133.68L201.1 133.83L200.39 136.69Z" fill="white"/>
</g>
<path opacity="0.3" d="M241.39 151.45L220.21 145.3C220.64 145.43 234.04 148.3 241.64 149.65L241.39 151.45Z" fill="black"/>
<path opacity="0.3" d="M267.77 183.931L279.16 180.291C279.16 180.291 271.29 187.551 265.22 188.601L267.77 183.931Z" fill="black"/>
<path d="M200.18 71.0103C199.37 71.0103 172.42 90.1003 168.63 94.6803C164.84 99.2603 157.29 133.2 157.29 133.2L167.4 135.72L179.73 103.23L202.73 91.5003C202.73 91.5003 208.25 80.9803 208.4 80.5003C208.55 80.0203 200.18 71.0103 200.18 71.0103Z" fill="#407BFF"/>
<path opacity="0.7" d="M200.18 71.0103C199.37 71.0103 172.42 90.1003 168.63 94.6803C164.84 99.2603 157.29 133.2 157.29 133.2L167.4 135.72L179.73 103.23L202.73 91.5003C202.73 91.5003 208.25 80.9803 208.4 80.5003C208.55 80.0203 200.18 71.0103 200.18 71.0103Z" fill="white"/>
<path d="M298.11 129.011L266.48 107.16C266.48 107.16 256 77.2805 252.75 72.5605C248.53 66.4305 240.49 66.0205 240.49 66.0205L245.37 91.5505C245.37 91.5505 248.2 101.751 250.91 109.081C253.7 116.601 254.78 120.691 261.63 124.761C267.57 128.291 292.94 137.761 292.94 137.761C292.5 137.571 298.11 129.011 298.11 129.011Z" fill="#407BFF"/>
<path opacity="0.7" d="M298.11 129.011L266.48 107.16C266.48 107.16 256 77.2805 252.75 72.5605C248.53 66.4305 240.49 66.0205 240.49 66.0205L245.37 91.5505C245.37 91.5505 248.2 101.751 250.91 109.081C253.7 116.601 254.78 120.691 261.63 124.761C267.57 128.291 292.94 137.761 292.94 137.761C292.5 137.571 298.11 129.011 298.11 129.011Z" fill="white"/>
<path d="M198.45 132.1C198.45 132.1 196.29 131.96 197.07 130.01C197.816 128.548 198.879 127.271 200.18 126.27L201.94 113.68L200.18 71.0102L208.06 69.0102L216.73 67.0102L220.43 63.6702L230.43 63.2002L235.34 65.9202H240.5C240.5 66.0002 250.64 89.0602 248.1 107.47C245.56 125.88 243.74 137.47 243.31 138.69C242.44 141.07 240.54 140.32 240.54 140.32L198.45 132.1Z" fill="#407BFF"/>
<path opacity="0.7" d="M198.45 132.1C198.45 132.1 196.29 131.96 197.07 130.01C197.816 128.548 198.879 127.271 200.18 126.27L201.94 113.68L201.06 92.3702L200.18 71.0102L208.06 69.0102L216.73 67.0102L220.43 63.6702L230.17 63.2002L235.37 65.9202H240.53C240.53 66.0002 250.67 89.0602 248.13 107.47C245.59 125.88 243.77 137.47 243.34 138.69C242.47 141.07 240.57 140.32 240.57 140.32L198.45 132.1Z" fill="white"/>
<path opacity="0.1" d="M225.59 136.77C225.557 136.768 225.525 136.759 225.496 136.744C225.467 136.729 225.44 136.708 225.419 136.683C225.398 136.658 225.381 136.629 225.371 136.598C225.361 136.566 225.358 136.533 225.36 136.5C227.48 115.963 227.901 95.2867 226.62 74.6804C226.617 74.6157 226.64 74.5525 226.683 74.504C226.726 74.4555 226.786 74.4255 226.85 74.4204C226.883 74.4161 226.916 74.4189 226.948 74.4285C226.979 74.4381 227.008 74.4544 227.033 74.4762C227.057 74.498 227.077 74.5248 227.09 74.5549C227.104 74.5849 227.111 74.6175 227.11 74.6504C228.399 95.283 227.981 115.987 225.86 136.55C225.858 136.583 225.849 136.615 225.834 136.643C225.819 136.672 225.798 136.698 225.773 136.718C225.747 136.739 225.718 136.754 225.687 136.763C225.655 136.772 225.623 136.775 225.59 136.77Z" fill="#263238"/>
<path opacity="0.2" d="M203.56 98.5404L203.84 105.18C203.84 105.18 221.26 92.3204 224.71 88.0204C229.17 82.4804 229.51 79.4204 229.51 79.4204L203.56 98.5404Z" fill="black"/>
<path d="M225.34 76.5303L227.4 79.7603C227.4 79.7603 197.8 101.62 170.18 103.47L168.49 112.88L178 114.62C178 114.62 220 98.4503 229.86 79.9603L232.81 75.5403L229.66 72.8003L228.66 73.4403L225.34 76.5303Z" fill="#407BFF"/>
<path opacity="0.2" d="M248.53 101.9C248.53 101.9 249.45 88.9005 249.63 82.2305C250.231 85.6254 250.649 89.0504 250.88 92.4905C251.15 96.9605 249.8 106.09 249.8 106.09L248.53 101.9Z" fill="black"/>
<path opacity="0.2" d="M217.2 67.5903C217.6 68.3403 224.01 76.5103 224.01 76.5103L229.18 72.9003C229.18 72.9003 224.69 77.8303 224.66 77.9003L223.33 78.0303L217.2 67.5903Z" fill="black"/>
<path opacity="0.2" d="M229.66 72.8004L233.52 74.4904C234.245 72.8736 234.84 71.2016 235.3 69.4904C235.38 68.4304 235.3 66.6304 235.3 66.6304H235.82C236.062 68.3483 235.949 70.0974 235.49 71.7704C234.68 74.0804 233.71 76.3104 233.71 76.3104L229.66 72.8004Z" fill="black"/>
<path opacity="0.2" d="M266.48 107.141C266.77 109.221 265.48 112.031 264.39 113.821C265.7 113.331 267.18 112.741 267.81 111.501C268.44 110.261 268.91 110.171 268.81 108.781L266.48 107.141Z" fill="black"/>
<path d="M217.2 46.5104C217.2 46.5104 208.38 39.6504 208.65 37.2304C208.92 34.8104 210.32 35.5004 210.32 35.5004C210.32 35.5004 207.13 29.8004 209.99 28.6904C212.85 27.5804 213.1 28.5404 213.1 28.5404C213.1 28.5404 211.76 23.8404 214 22.3204C215.71 21.1504 216.55 23.3204 216.55 23.3204C216.55 23.3204 219.68 17.9904 223.69 17.9004C225.69 17.9704 226.69 19.2104 226.49 20.7504V20.9504C226.49 20.9504 234.43 17.0904 238.28 19.1504C242.13 21.2104 237.33 23.8404 237.33 23.8404C237.33 23.8404 245.18 22.6904 246.85 25.8404C248.18 28.3104 244.74 30.1504 244.74 30.1504C245.602 30.433 246.405 30.8701 247.11 31.4404C247.573 31.8383 247.909 32.3631 248.076 32.95C248.244 33.5368 248.235 34.1599 248.052 34.7421C247.869 35.3243 247.52 35.84 247.046 36.2254C246.573 36.6108 245.997 36.849 245.39 36.9104H245.32C244.91 36.9104 244.16 37.0604 243.84 36.7804C243.84 36.7804 245.31 39.5804 242.43 40.6204C239.55 41.6604 238.03 38.3304 238.03 38.3304L217.2 46.5104Z" fill="#263238"/>
<path d="M220.65 64.9502C220.65 64.9502 220.95 60.8202 217.65 50.9502C217.65 50.9502 218.17 50.6802 218.17 50.6702C217.7 49.2902 217.22 48.0202 216.77 46.9102L230.77 54.7702C230.58 57.9802 232 64.1102 232.77 66.6902L229.47 72.8402L220.65 64.9502Z" fill="#E9B376"/>
<path opacity="0.2" d="M231.21 59.2103L223.26 57.7803C224.08 60.2003 226.37 63.0003 231.86 63.0003C231.54 61.7569 231.322 60.4893 231.21 59.2103Z" fill="black"/>
<path d="M239.2 30.6901C240.95 33.7801 241.82 40.6901 236.72 39.4801C231.62 38.2701 236.2 25.3701 239.2 30.6901Z" fill="#263238"/>
<path d="M216.34 40.2302C217.64 48.8602 218.2 53.7502 222.98 57.7802C230.17 63.8402 240.3 59.0302 241.61 50.1602C242.79 42.1602 240.47 29.4102 231.66 26.7902C229.708 26.1986 227.637 26.1144 225.644 26.5454C223.65 26.9765 221.799 27.9086 220.266 29.2537C218.733 30.5989 217.568 32.3127 216.881 34.2332C216.194 36.1538 216.008 38.2178 216.34 40.2302Z" fill="#E9B376"/>
<path d="M229 41.6405C229.08 42.5305 229.61 43.2005 230.19 43.1405C230.77 43.0805 231.19 42.3205 231.1 41.4305C231.01 40.5405 230.49 39.8705 229.91 39.9305C229.33 39.9905 228.9 40.7505 229 41.6405Z" fill="#263238"/>
<path d="M237.7 41.0105C237.78 41.9005 238.32 42.5805 238.9 42.5205C239.48 42.4605 239.9 41.7005 239.81 40.8105C239.72 39.9205 239.19 39.2505 238.61 39.3005C238.03 39.3505 237.62 40.1605 237.7 41.0105Z" fill="#263238"/>
<path d="M234.83 40.8003C234.83 40.8003 238.03 44.9703 239.09 46.6803C237.95 47.9103 235.77 47.5803 235.77 47.5803L234.83 40.8003Z" fill="#D58745"/>
<path d="M226.63 36.9502C226.702 36.9666 226.778 36.9633 226.848 36.9404C226.918 36.9175 226.981 36.8759 227.03 36.8202C227.373 36.4224 227.803 36.1097 228.287 35.9067C228.771 35.7036 229.296 35.6158 229.82 35.6502C229.93 35.6648 230.041 35.6366 230.13 35.5714C230.22 35.5062 230.28 35.4091 230.3 35.3002C230.31 35.2461 230.309 35.1905 230.296 35.137C230.284 35.0834 230.26 35.033 230.228 34.9889C230.195 34.9448 230.153 34.9079 230.105 34.8806C230.058 34.8533 230.005 34.8361 229.95 34.8302C229.288 34.7698 228.621 34.8691 228.005 35.1196C227.389 35.3702 226.842 35.7647 226.41 36.2702C226.333 36.3488 226.289 36.4547 226.289 36.5652C226.289 36.6756 226.333 36.7816 226.41 36.8602C226.472 36.9135 226.549 36.9452 226.63 36.9502Z" fill="#263238"/>
<path d="M241.25 36.8706C241.327 36.8459 241.394 36.7967 241.44 36.7306C241.506 36.6409 241.534 36.5295 241.519 36.4195C241.504 36.3095 241.447 36.2096 241.36 36.1406C240.842 35.7345 240.233 35.4597 239.585 35.3396C238.937 35.2195 238.27 35.2575 237.64 35.4506C237.588 35.4695 237.541 35.4986 237.5 35.536C237.459 35.5734 237.426 35.6185 237.403 35.6687C237.38 35.7188 237.367 35.7731 237.365 35.8284C237.362 35.8836 237.371 35.9387 237.39 35.9906C237.409 36.0413 237.438 36.0877 237.475 36.1272C237.512 36.1667 237.556 36.1986 237.605 36.2209C237.655 36.2432 237.708 36.2555 237.762 36.2572C237.816 36.2589 237.87 36.2498 237.92 36.2306C238.421 36.0822 238.951 36.0584 239.463 36.1612C239.976 36.264 240.455 36.4904 240.86 36.8206C240.916 36.8601 240.981 36.8853 241.049 36.894C241.117 36.9028 241.186 36.8947 241.25 36.8706Z" fill="#263238"/>
<path d="M234.7 50.0806C233.28 49.6906 230.7 48.8606 229.36 47.6006C229.215 47.9194 229.111 48.2555 229.05 48.6006C228.922 49.1931 228.943 49.808 229.11 50.3906C229.47 51.5806 230.57 52.8306 233.43 53.5006H233.48C233.48 53.5006 235.02 53.8306 235.64 50.3206C235.67 50.3206 235.29 50.2406 234.7 50.0806Z" fill="#263238"/>
<path d="M234.7 50.0806L234.2 51.0806C231.51 50.4406 229.7 49.6306 229.05 48.6206C229.111 48.2755 229.215 47.9394 229.36 47.6206C230.67 48.8606 233.28 49.6906 234.7 50.0806Z" fill="white"/>
<path d="M233.43 53.4806C230.57 52.8106 229.43 51.5606 229.11 50.3706C230.183 50.6483 231.198 51.112 232.11 51.7406C232.719 52.1704 233.18 52.7782 233.43 53.4806Z" fill="#DC5753"/>
<path d="M219.22 46.8404C219.994 46.4669 220.646 45.8807 221.1 45.1504C221.396 44.4069 221.462 43.5918 221.29 42.8104C221.185 41.9893 221.035 41.1747 220.84 40.3704C221.63 40.7304 222.54 40.0704 222.93 39.3004C223.413 38.091 223.534 36.7675 223.28 35.4904C223.78 35.5792 224.294 35.5334 224.771 35.3577C225.247 35.1819 225.668 34.8826 225.99 34.4904C226.302 34.0918 226.464 33.5968 226.45 33.091C226.435 32.5851 226.244 32.1003 225.91 31.7204C229.138 32.0153 232.393 31.6756 235.49 30.7204C235.29 31.1204 235.56 31.6004 235.85 31.9504C237.045 33.3705 238.722 34.2998 240.56 34.5604C240.83 34.5604 241.16 34.5604 241.3 34.3604C241.362 34.2297 241.38 34.0821 241.35 33.9404C241.087 32.1763 240.143 30.5857 238.72 29.5104C237.291 28.4728 235.695 27.6881 234 27.1904C231.239 26.1931 228.343 25.6199 225.41 25.4904C222.47 25.3623 219.546 25.9925 216.92 27.3204C216.334 27.5904 215.818 27.9906 215.41 28.4904C215.066 28.9939 214.828 29.562 214.71 30.1604C213.779 33.7486 213.522 37.4783 213.95 41.1604" fill="#263238"/>
<path d="M213.55 47.7705C213.971 48.7678 214.586 49.6719 215.358 50.4305C216.13 51.1891 217.045 51.7873 218.05 52.1905C220.76 53.2505 222.42 50.8905 221.94 48.1905C221.5 45.7505 219.56 42.2605 216.72 42.3605C213.88 42.4605 212.53 45.2805 213.55 47.7705Z" fill="#E9B376"/>
<path opacity="0.2" d="M219.51 47.6902C219.453 47.689 219.399 47.6686 219.355 47.6323C219.311 47.5959 219.282 47.5458 219.27 47.4902C219.13 46.7909 218.805 46.1418 218.33 45.6102C217.969 45.1607 217.464 44.8499 216.9 44.7302C216.642 44.6814 216.374 44.7105 216.132 44.8138C215.89 44.917 215.684 45.0898 215.54 45.3102C215.526 45.3401 215.505 45.3667 215.479 45.3882C215.454 45.4097 215.424 45.4257 215.392 45.4351C215.36 45.4445 215.327 45.4472 215.294 45.4429C215.26 45.4386 215.229 45.4274 215.2 45.4102C215.171 45.3945 215.146 45.3732 215.125 45.3476C215.104 45.322 215.089 45.2925 215.079 45.2609C215.07 45.2293 215.067 45.1962 215.071 45.1635C215.074 45.1307 215.084 45.099 215.1 45.0702C215.294 44.7595 215.577 44.5143 215.913 44.3663C216.248 44.2184 216.62 44.1744 216.98 44.2402C217.654 44.366 218.265 44.7189 218.71 45.2402C219.216 45.8477 219.56 46.5736 219.71 47.3502C219.722 47.4163 219.708 47.4845 219.671 47.5405C219.633 47.5964 219.576 47.6357 219.51 47.6502V47.6902Z" fill="black"/>
<path d="M346.61 255.911L310 311.411C296.84 328.411 285.86 343.411 266 349.191L195.56 375.761C191.431 377.316 187.773 379.91 184.941 383.293C182.108 386.676 180.196 390.733 179.39 395.071L182 409.011H106.4C106.4 409.011 107.4 354.331 112.02 337.841C116.35 322.391 127.14 308.841 149.29 304.391C167.71 300.661 237.9 287.461 251.51 287.021C257.3 286.841 258.73 290.861 258.46 291.311L261.67 290.951C261.67 290.951 299.42 257.641 307.67 249.581C314.06 243.341 324.73 246.971 324.73 246.971C324.73 246.971 336.12 236.451 344.26 241.621C344.28 241.581 351.77 246.931 346.61 255.911Z" fill="#DB8C7E"/>
<path opacity="0.3" d="M258.46 291.271C262.9 303.951 251.91 311.791 239.11 317.711C226.31 323.631 194.23 334.241 194.23 334.241L193.23 339.891L198.63 335.551C198.63 335.551 225.01 326.201 242.63 317.991C253.83 312.781 257.83 308.551 259.69 304.231C261.21 300.617 261.461 296.595 260.4 292.821L260 290.911L258.46 291.271Z" fill="black"/>
<path opacity="0.3" d="M324.75 246.931C324.75 246.931 331.9 253.451 326.13 260.421C321.27 266.291 281.58 317.241 281.58 317.241L286.64 313.091C286.64 313.091 327.64 264.731 330.24 260.501C334.07 254.181 328.07 246.861 324.75 246.931Z" fill="black"/>
</svg>
