<svg width="14" height="14" viewBox="0 0 14 14" fill="none" xmlns="http://www.w3.org/2000/svg">
<path d="M13.2045 13.9999H0.795453C0.74656 14 0.698425 13.988 0.655369 13.9651C0.612312 13.9423 0.575682 13.9092 0.548766 13.8689C0.521851 13.8286 0.505493 13.7824 0.501161 13.7343C0.496829 13.6862 0.504659 13.6378 0.523947 13.5935L2.29668 9.51013C2.31939 9.45762 2.35723 9.41286 2.4055 9.38141C2.45377 9.34996 2.51034 9.33322 2.56818 9.33325H3.15909C3.23745 9.33325 3.3126 9.36398 3.36801 9.41868C3.42342 9.47338 3.45454 9.54756 3.45454 9.62492C3.45454 9.70227 3.42342 9.77646 3.36801 9.83116C3.3126 9.88586 3.23745 9.91659 3.15909 9.91659H2.76294L1.24354 13.4166H12.7565L11.2371 9.91659H10.8409C10.7626 9.91659 10.6874 9.88586 10.632 9.83116C10.5766 9.77646 10.5455 9.70227 10.5455 9.62492C10.5455 9.54756 10.5766 9.47338 10.632 9.41868C10.6874 9.36398 10.7626 9.33325 10.8409 9.33325H11.4318C11.4897 9.33322 11.5462 9.34996 11.5945 9.38141C11.6428 9.41286 11.6806 9.45762 11.7033 9.51013L13.4761 13.5935C13.4953 13.6378 13.5032 13.6862 13.4988 13.7343C13.4945 13.7824 13.4781 13.8286 13.4512 13.8689C13.4243 13.9092 13.3877 13.9423 13.3446 13.9651C13.3016 13.988 13.2534 14 13.2045 13.9999Z" fill="#6B7280"/>
<path d="M7.00022 12.2501C6.92898 12.2501 6.86012 12.2247 6.80633 12.1786C6.62139 12.0196 2.27295 8.24505 2.27295 4.6032C2.28996 3.37659 2.7955 2.20591 3.68019 1.34445C4.56487 0.482981 5.75757 0 7.00022 0C8.24288 0 9.43557 0.482981 10.3203 1.34445C11.2049 2.20591 11.7105 3.37659 11.7275 4.6032C11.7275 8.24505 7.37906 12.0196 7.19411 12.1786C7.14033 12.2247 7.07147 12.2501 7.00022 12.2501ZM7.00022 0.583387C5.91211 0.576238 4.86555 0.995435 4.09011 1.74902C3.31467 2.50261 2.87368 3.52906 2.86386 4.6032C2.86386 7.56203 6.15801 10.7875 7.00022 11.5636C7.84244 10.7875 11.1366 7.56203 11.1366 4.6032C11.1268 3.52906 10.6858 2.50261 9.91034 1.74902C9.1349 0.995435 8.08834 0.576238 7.00022 0.583387Z" fill="#6B7280"/>
<path d="M7.00027 6.41675C6.64966 6.41675 6.30692 6.31411 6.01539 6.12182C5.72387 5.92953 5.49665 5.65622 5.36248 5.33644C5.22831 5.01667 5.1932 4.66481 5.2616 4.32534C5.33 3.98587 5.49884 3.67405 5.74676 3.42931C5.99468 3.18457 6.31055 3.0179 6.65443 2.95037C6.9983 2.88285 7.35474 2.91751 7.67866 3.04996C8.00259 3.18241 8.27945 3.40671 8.47424 3.6945C8.66903 3.98229 8.773 4.32063 8.773 4.66675C8.77248 5.13072 8.58555 5.57555 8.25321 5.90363C7.92087 6.2317 7.47027 6.41624 7.00027 6.41675ZM7.00027 3.50008C6.76653 3.50008 6.53803 3.56851 6.34368 3.6967C6.14934 3.8249 5.99786 4.0071 5.90841 4.22028C5.81896 4.43347 5.79556 4.66804 5.84116 4.89435C5.88676 5.12067 5.99932 5.32854 6.1646 5.49171C6.32988 5.65487 6.54046 5.76598 6.76971 5.811C6.99896 5.85601 7.23658 5.83291 7.45253 5.74461C7.66848 5.65631 7.85305 5.50677 7.98291 5.31491C8.11277 5.12306 8.18209 4.89749 8.18209 4.66675C8.18177 4.35742 8.05716 4.06086 7.83559 3.84213C7.61403 3.62341 7.31361 3.50039 7.00027 3.50008Z" fill="#6B7280"/>
</svg>
