<svg width="24" height="24" viewBox="0 0 24 24" fill="none" xmlns="http://www.w3.org/2000/svg">
<path d="M12 24C18.6274 24 24 18.6274 24 12C24 5.37258 18.6274 0 12 0C5.37258 0 0 5.37258 0 12C0 18.6274 5.37258 24 12 24Z" fill="#E6ECFF"/>
<path d="M21.6299 19.1512C20.5107 17.6529 19.0575 16.4362 17.3857 15.5979C15.7139 14.7596 13.8696 14.3229 11.9994 14.3223C10.1292 14.3217 8.28469 14.7573 6.61238 15.5945C4.94006 16.4318 3.48607 17.6475 2.36597 19.1452C3.48038 20.6504 4.93199 21.8736 6.60441 22.7166C8.27683 23.5597 10.1235 23.9991 11.9964 23.9997C13.8693 24.0003 15.7162 23.562 17.3892 22.72C19.0621 21.878 20.5145 20.6558 21.6299 19.1512Z" fill="#4294FF"/>
<path d="M12 12.7742C14.5655 12.7742 16.6452 10.6945 16.6452 8.12905C16.6452 5.5636 14.5655 3.48389 12 3.48389C9.43457 3.48389 7.35486 5.5636 7.35486 8.12905C7.35486 10.6945 9.43457 12.7742 12 12.7742Z" fill="#4294FF"/>
</svg>
