<svg width="120" height="120" viewBox="0 0 120 120" fill="none" xmlns="http://www.w3.org/2000/svg">
<circle cx="60" cy="60" r="60" fill="#F8FAFC"/>
<path d="M68.1534 72H51.8466C50.8283 72 50 71.1501 50 70.1053V69.0078C50 64.8231 53.3181 61.4185 57.3966 61.4185H62.6034C66.6819 61.4185 70 64.8231 70 69.0078V70.1053C70 71.1501 69.1717 72 68.1534 72ZM57.3966 62.6816C53.9969 62.6816 51.2311 65.5195 51.2311 69.0078V70.1053C51.2311 70.4535 51.5072 70.7368 51.8466 70.7368H68.1534C68.4928 70.7368 68.7689 70.4535 68.7689 70.1053V69.0078C68.7689 65.5195 66.0031 62.6816 62.6034 62.6816H57.3966Z" fill="#E5E7EB"/>
<path d="M60 60.5694C56.6226 60.5694 53.8749 57.7501 53.8749 54.2847C53.8749 50.8193 56.6226 48 60 48C63.3774 48 66.1251 50.8193 66.1251 54.2847C66.1251 57.7501 63.3774 60.5694 60 60.5694ZM60 49.2632C57.3015 49.2632 55.106 51.5159 55.106 54.2847C55.106 57.0535 57.3015 59.3062 60 59.3062C62.6985 59.3062 64.894 57.0535 64.894 54.2847C64.894 51.5159 62.6985 49.2632 60 49.2632Z" fill="#E5E7EB"/>
</svg>
