<svg width="14" height="12" viewBox="0 0 14 12" fill="none" xmlns="http://www.w3.org/2000/svg">
<path d="M13.825 6.08562L8.575 11.2044C8.34167 11.4319 7.99167 11.4319 7.75833 11.2044C7.525 10.9769 7.525 10.6356 7.75833 10.4081L12.0167 6.25625L0.583334 6.25625C0.233334 6.25625 0 6.02875 0 5.6875C0 5.34625 0.233334 5.11875 0.583334 5.11875L12.0167 5.11875L7.75833 0.966875C7.525 0.739375 7.525 0.398124 7.75833 0.170624C7.99167 -0.0568762 8.34167 -0.0568762 8.575 0.170624L13.825 5.28937C13.9417 5.40312 14 5.51687 14 5.6875C14 5.85812 13.9417 5.97187 13.825 6.08562Z" fill="#2563EB"/>
</svg>
