<svg width="16" height="16" viewBox="0 0 16 16" fill="none" xmlns="http://www.w3.org/2000/svg">
<path d="M14.2857 0H1.71429C1.25963 0 0.823594 0.180612 0.502103 0.502103C0.180612 0.823594 0 1.25963 0 1.71429V14.2857C0 14.7404 0.180612 15.1764 0.502103 15.4979C0.823594 15.8194 1.25963 16 1.71429 16H14.2857C14.7404 16 15.1764 15.8194 15.4979 15.4979C15.8194 15.1764 16 14.7404 16 14.2857V1.71429C16 1.25963 15.8194 0.823594 15.4979 0.502103C15.1764 0.180612 14.7404 0 14.2857 0ZM5.14286 14.8571H1.71429C1.56273 14.8571 1.41739 14.7969 1.31022 14.6898C1.20306 14.5826 1.14286 14.4373 1.14286 14.2857V11.4286H5.14286V14.8571ZM5.14286 10.2857H1.14286V6.28571H5.14286V10.2857ZM5.14286 5.14286H1.14286V1.71429C1.14286 1.56273 1.20306 1.41739 1.31022 1.31022C1.41739 1.20306 1.56273 1.14286 1.71429 1.14286H5.14286V5.14286ZM10.2857 14.8571H6.28571V11.4286H10.2857V14.8571ZM10.2857 10.2857H6.28571V6.28571H10.2857V10.2857ZM10.2857 5.14286H6.28571V1.14286H10.2857V5.14286ZM14.8571 14.2857C14.8571 14.4373 14.7969 14.5826 14.6898 14.6898C14.5826 14.7969 14.4373 14.8571 14.2857 14.8571H11.4286V11.4286H14.8571V14.2857ZM14.8571 10.2857H11.4286V6.28571H14.8571V10.2857ZM14.8571 5.14286H11.4286V1.14286H14.2857C14.4373 1.14286 14.5826 1.20306 14.6898 1.31022C14.7969 1.41739 14.8571 1.56273 14.8571 1.71429V5.14286Z" fill="#2563EB"/>
</svg>
