<svg width="24" height="15" viewBox="0 0 24 15" fill="none" xmlns="http://www.w3.org/2000/svg">
<path d="M18.3312 3.95873C17.7142 2.8506 16.8179 1.90869 15.7174 1.2167C14.4514 0.420725 12.98 0 11.4619 0C7.68787 0 4.48956 2.58939 3.8053 6.1059C1.63055 6.49401 0 8.33361 0 10.515C0 12.988 2.09015 15 4.6593 15H11.2969V9.32259L9.80713 10.7566C9.53247 11.0208 9.08734 11.0208 8.81268 10.7566C8.53802 10.4922 8.53802 10.0637 8.81268 9.79936L11.5029 7.20997C11.7773 6.94558 12.2225 6.94558 12.4971 7.20997L15.1873 9.79936C15.462 10.0637 15.462 10.4922 15.1873 10.7566C15.05 10.8888 14.87 10.9549 14.6902 10.9549C14.5102 10.9549 14.3302 10.8888 14.1929 10.7566L12.7031 9.32259V15H18.2646C21.4272 15 24 12.5234 24 9.4791C24 6.45629 21.4633 3.9931 18.3312 3.95873Z" fill="#6B7280"/>
</svg>
